FFmpeg version SVN-r25716, Copyright (c) 2000-2010 the FFmpeg developers  built on Nov 10 2010 12:23:18 with gcc 4.1.2 20080704 (Red Hat 4.1.2-48)  configuration: --enable-libmp3lame --enable-shared --disable-mmx --arch=x86_64  libavutil     50.33. 0 / 50.33. 0  libavcore      0.12. 1 /  0.12. 1  libavcodec    52.94. 4 / 52.94. 4  libavformat   52.84. 0 / 52.84. 0  libavdevice   52. 2. 2 / 52. 2. 2  libavfilter    1.59. 0 /  1.59. 0  libswscale     0.12. 0 /  0.12. 0Seems stream 0 codec frame rate differs from container frame rate: 600.00 (600/1) -> 8.00 (8/1)Input #0, mov,mp4,m4a,3gp,3g2,mj2, from '/RAID10/data/converted_video_files/25776.mov':  Duration: 00:00:07.62, start: 0.000000, bitrate: 7524 kb/s    Stream #0.0(eng): Video: rpza, rgb555le, 672x512, 7523 kb/s, 8 fps, 8 tbr, 600 tbn, 600 tbc[buffer @ 0x1efbebe0] w:672 h:512 pixfmt:rgb555le[ffsink @ 0x1efbf720] auto-inserting filter 'auto-inserted scaler 0' between the filter 'src' and the filter 'out'[scale @ 0x1efbfa10] w:672 h:512 fmt:rgb555le -> w:672 h:512 fmt:yuv420p flags:0x4Output #0, flv, to '/RAID10/data/converted_video_files/25776.flv':  Metadata:    encoder         : Lavf52.84.0    Stream #0.0(eng): Video: flv, yuv420p, 672x512, q=2-31, 600 kb/s, 1k tbn, 24 tbcStream mapping:  Stream #0.0 -> #0.0Press [q] to stop encodingframe=    3 fps=  2 q=2.0 size=     231kB time=0.29 bitrate=6472.4kbits/s    frame=    5 fps=  2 q=4.3 size=     399kB time=0.54 bitrate=6048.8kbits/s    frame=   10 fps=  3 q=18.2 size=     420kB time=1.17 bitrate=2948.4kbits/s    frame=   14 fps=  4 q=27.2 size=     428kB time=1.67 bitrate=2105.9kbits/s    frame=   22 fps=  5 q=30.1 size=     452kB time=2.67 bitrate=1388.7kbits/s    frame=   29 fps=  6 q=25.1 size=     468kB time=3.54 bitrate=1082.3kbits/s    frame=   36 fps=  7 q=22.3 size=     499kB time=4.42 bitrate= 924.6kbits/s    frame=   43 fps=  7 q=19.2 size=     530kB time=5.29 bitrate= 820.0kbits/s    frame=   46 fps=  7 q=18.8 size=     539kB time=5.67 bitrate= 778.5kbits/s    frame=   53 fps=  8 q=17.9 size=     571kB time=6.54 bitrate= 715.4kbits/s    frame=   61 fps=  8 q=13.1 size=     571kB time=7.54 bitrate= 620.4kbits/s    frame=   61 fps=  8 q=13.1 Lsize=     571kB time=7.54 bitrate= 620.4kbits/s    video:570kB audio:0kB global headers:0kB muxing overhead 0.203181%kbits/s    video:570kB audio:0kB global headers:0kB muxing overhead 0.203181%